<?xml version="1.0" encoding="iso-8859-1"?>
<!-- Generator: Adobe Illustrator 19.0.0, SVG Export Plug-In . SVG Version: 6.00 Build 0)  -->
<svg version="1.1" id="Capa_1" xmlns="http://www.w3.org/2000/svg" xmlns:xlink="http://www.w3.org/1999/xlink" x="0px" y="0px"
	 viewBox="0 0 404.752 404.752" style="enable-background:new 0 0 404.752 404.752;" xml:space="preserve">
<path style="fill:#6AC9EA;" d="M44.67,321.936c-11.52,0-24.64-22.24-31.2-43.2s-8-48,1.84-53.68l0.8-0.48h0.88l54.72-33.28v14.24
	c-0.395,34.948,10.12,69.15,30.08,97.84l8,11.04l-62.8,7.44h-1.52L44.67,321.936z"/>
<g>
	<path style="fill:#FFFFFF;" d="M69.23,314.656h-1.52h-1.36c-11.52,0-24.64-22.24-31.2-43.2s-8-48,1.84-53.68l0.8-0.48h0.88
		l32.72-19.92v-6.08l-54.4,33.04h-0.88l-0.8,0.48c-9.84,5.68-8.64,32-1.84,53.68s19.6,43.2,31.2,43.2h1.04h1.52l62.8-7.44l-3.2-4.32
		L69.23,314.656z"/>
	<path style="fill:#FFFFFF;" d="M94.51,359.056c-5.127-0.009-9.43-3.865-10-8.96l-3.36-32.48l120-14.16l3.52,34.08
		c0.278,2.642-0.498,5.287-2.16,7.36c-1.698,2.123-4.176,3.478-6.88,3.76l-100.48,10.4H94.51z"/>
	<path style="fill:#FFFFFF;" d="M89.87,324.656l2.56,24.56c0.126,1.118,1.119,1.934,2.24,1.84l100.08-10.4
		c1.102-0.08,1.93-1.038,1.85-2.14c-0.002-0.034-0.006-0.067-0.01-0.1l-2.72-26L89.87,324.656z"/>
</g>
<path style="fill:#F79959;" d="M108.03,310.896c-37.28-43.44-36.96-99.76-36-116v-4.16l226.32-137.36l-2.72,17.04
	c-0.921,6.196-1.349,12.456-1.28,18.72c0.97,29.405,6.115,58.523,15.28,86.48c12.96,41.76,32,78.64,49.6,96l11.12,11.84
	l-259.52,30.64L108.03,310.896z"/>
<g>
	<path style="fill:#FFFFFF;" d="M136.83,306.096l-2.8-3.28c-37.28-43.44-36.96-99.76-35.68-116.16v-4.16l198.24-120.48l1.76-8.64
		L72.27,190.656v4.16c-0.96,16-1.28,72.56,36,116l2.8,3.28l259.28-30.64l-4.4-4.4L136.83,306.096z"/>
	<path style="fill:#FFFFFF;" d="M376.99,282.656c-20.16-1.68-49.28-48-67.68-106.88c-9.162-27.958-14.307-57.075-15.28-86.48
		c0-18.88,3.04-32,9.12-38.64l0.72-0.8l5.12-3.12h2.16h1.2c20,0,50.32,47.04,68.96,107.04c9.167,27.957,14.312,57.075,15.28,86.48
		c0,23.28-4.8,38.16-13.76,41.92l-1.04,0.4l-4.08,0.48L376.99,282.656z"/>
</g>
<path style="fill:#203D4C;" d="M312.35,38.256c-1.62,0.017-3.232,0.231-4.8,0.64h-1.2c-2.752,0.871-5.288,2.316-7.44,4.24
	L13.55,217.056c-16.96,6.48-16,37.52-8,64c3.718,12.7,9.649,24.643,17.52,35.28c4.679,7.647,12.677,12.653,21.6,13.52
	c1.268-0.01,2.53-0.172,3.76-0.48l25.92-2.88l2.56,24c1.054,9.105,8.755,15.98,17.92,16h1.84l100.08-10.4
	c9.881-1.09,17.028-9.953,16-19.84l-2.72-26.24l168.32-19.36c2.033,0.008,4.055-0.288,6-0.88c9.36-2.88,20.56-14,20.4-50.08
	c-1.092-30.209-6.479-60.109-16-88.8C372.11,96.656,340.99,38.256,312.35,38.256L312.35,38.256z M46.27,313.696h-1.36
	c-3.6,0.56-16-12.16-24-37.6s-4.8-42.64-1.76-44.4h0.96l43.44-26.4c-0.3,36.714,10.889,72.602,32,102.64L46.27,313.696z
	 M196.19,339.936c-0.345,0.405-0.831,0.663-1.36,0.72l-100.08,10.4c-1.121,0.094-2.114-0.722-2.24-1.84l-2.56-24.56l104-12.24
	l2.64,26.24c-0.006,0.432-0.145,0.851-0.4,1.2V339.936z M114.35,305.696c-35.44-41.28-34.96-96-34.08-110.32l207.12-126.24
	c-0.988,6.62-1.443,13.308-1.36,20c1.092,30.209,6.479,60.109,16,88.8c12,38.56,31.2,79.12,51.6,99.44L114.35,305.696z
	 M379.79,274.656h-2.16c-12.48-1.04-40.72-36.96-60.72-101.28c-8.943-27.204-13.98-55.54-14.96-84.16c0-20.32,3.68-29.6,6.96-33.12
	l2.8-1.68h0.64c12.16,0,41.04,36.08,61.28,101.36c8.946,27.203,13.983,55.54,14.96,84.16
	C388.75,264.256,383.31,272.896,379.79,274.656z"/>
<g>
</g>
<g>
</g>
<g>
</g>
<g>
</g>
<g>
</g>
<g>
</g>
<g>
</g>
<g>
</g>
<g>
</g>
<g>
</g>
<g>
</g>
<g>
</g>
<g>
</g>
<g>
</g>
<g>
</g>
</svg>
