<svg id="Layer_1" data-name="Layer 1" xmlns="http://www.w3.org/2000/svg" viewBox="0 0 421 137"><defs><style>.cls-1{fill:none;stroke:#cda977;stroke-width:4px;}.cls-2{fill:#383838;}.cls-3{fill:#cda977;}</style></defs><title>logo</title><circle class="cls-1" cx="68.5" cy="68.5" r="66.5"/><path class="cls-1" d="M195.57,76.5c0,18.68-3.66,35.5-9.49,47.57S172.43,143,164.5,143s-15.69-6.72-21.58-18.93-9.49-28.89-9.49-47.57,3.66-35.5,9.49-47.57S156.57,10,164.5,10s15.69,6.72,21.58,18.93S195.57,57.82,195.57,76.5Z" transform="translate(-96 -8)"/><path class="cls-1" d="M223.55,44.81S187.63,49,164.5,49s-59-4.16-59-4.16" transform="translate(-96 -8)"/><line class="cls-1" x1="68.86" y1="134.64" x2="68.86" y2="2.36"/><line class="cls-1" x1="134.64" y1="70.5" x2="2.36" y2="70.5"/><path class="cls-1" d="M223.55,108.59s-35.93-4.15-59.05-4.15-59,4.15-59,4.15" transform="translate(-96 -8)"/><path class="cls-2" d="M259.91,107.29l2.35-3.86h2.1l-3.45,5.23,3.56,5.34h-2.09l-2.44-4-2.44,4h-2.1l3.56-5.34-3.45-5.23h2.09Zm12.9,6.71a3.81,3.81,0,0,1-.25-1.11,4,4,0,0,1-3,1.3,3.79,3.79,0,0,1-2.57-.87,2.91,2.91,0,0,1-1-2.25,3,3,0,0,1,1.25-2.56,5.93,5.93,0,0,1,3.53-.92h1.76v-.83a2,2,0,0,0-.57-1.5,2.25,2.25,0,0,0-1.67-.57,2.69,2.69,0,0,0-1.62.49,1.46,1.46,0,0,0-.65,1.18H266.2a2.51,2.51,0,0,1,.56-1.52,3.83,3.83,0,0,1,1.52-1.17,5.12,5.12,0,0,1,2.12-.43,4.12,4.12,0,0,1,2.86.92,3.28,3.28,0,0,1,1.08,2.51v4.86a5.87,5.87,0,0,0,.37,2.31V114Zm-3-1.38a3.13,3.13,0,0,0,1.62-.44,2.68,2.68,0,0,0,1.1-1.14v-2.17h-1.42c-2.21,0-3.32.65-3.32,1.95a1.62,1.62,0,0,0,.57,1.32A2.17,2.17,0,0,0,269.81,112.62Zm12-8.58a4,4,0,0,1,3.18,1.34,5,5,0,0,1,1.2,3.5v.17a5.92,5.92,0,0,1-.58,2.67,4.21,4.21,0,0,1-1.66,1.83,4.69,4.69,0,0,1-2.47.64,4.42,4.42,0,0,1-3.43-1.41,5.43,5.43,0,0,1-1.3-3.82v-.88a9.89,9.89,0,0,1,1.23-5.29,5.14,5.14,0,0,1,3.65-2.39,4.9,4.9,0,0,0,1.85-.6,1.13,1.13,0,0,0,.47-1h1.49a3,3,0,0,1-.56,1.91,3.08,3.08,0,0,1-1.76,1l-1.34.3a4.46,4.46,0,0,0-2.42,1.29,4.58,4.58,0,0,0-1.05,2.4A4.45,4.45,0,0,1,281.81,104Zm-.36,1.48a2.64,2.64,0,0,0-2.1.9,3.63,3.63,0,0,0-.79,2.47v.16a4.24,4.24,0,0,0,.79,2.69,2.77,2.77,0,0,0,4.25,0,4.63,4.63,0,0,0,.79-2.91,3.49,3.49,0,0,0-.8-2.39A2.69,2.69,0,0,0,281.45,105.52ZM301.82,114H300v-4.51h-4.85V114h-1.82V103.43h1.82V108H300v-4.58h1.81Zm2.43-5.38a6.28,6.28,0,0,1,.6-2.79,4.47,4.47,0,0,1,4.19-2.59,4.47,4.47,0,0,1,3.49,1.49,5.76,5.76,0,0,1,1.34,4v.12a6.27,6.27,0,0,1-.6,2.78,4.4,4.4,0,0,1-1.69,1.9,4.62,4.62,0,0,1-2.52.68,4.43,4.43,0,0,1-3.48-1.49,5.69,5.69,0,0,1-1.33-4Zm1.81.21a4.49,4.49,0,0,0,.82,2.83,2.77,2.77,0,0,0,4.37,0,5,5,0,0,0,.81-3,4.47,4.47,0,0,0-.83-2.81,2.6,2.6,0,0,0-2.19-1.09,2.58,2.58,0,0,0-2.15,1.07A4.87,4.87,0,0,0,306.06,108.83ZM316.3,114V103.43h4.12a5.8,5.8,0,0,1,3.23.75,2.38,2.38,0,0,1,1.14,2.15,2.21,2.21,0,0,1-.44,1.33,2.81,2.81,0,0,1-1.3.9,2.83,2.83,0,0,1,1.53.88,2.28,2.28,0,0,1,.59,1.56,2.58,2.58,0,0,1-1.08,2.23,5.1,5.1,0,0,1-3,.77Zm1.81-4.64v3.18h3a2.78,2.78,0,0,0,1.69-.42,1.36,1.36,0,0,0,.57-1.18c0-1-.77-1.58-2.33-1.58Zm0-1.44h2.33c1.69,0,2.54-.5,2.54-1.49s-.8-1.5-2.4-1.53h-2.47Zm9,.7a6.15,6.15,0,0,1,.61-2.79,4.55,4.55,0,0,1,1.7-1.92,4.6,4.6,0,0,1,2.49-.67,4.45,4.45,0,0,1,3.48,1.49,5.76,5.76,0,0,1,1.34,4v.12a6.27,6.27,0,0,1-.6,2.78,4.4,4.4,0,0,1-1.69,1.9,4.6,4.6,0,0,1-2.52.68,4.43,4.43,0,0,1-3.48-1.49,5.69,5.69,0,0,1-1.33-4Zm1.82.21a4.55,4.55,0,0,0,.81,2.83,2.77,2.77,0,0,0,4.37,0,5,5,0,0,0,.81-3,4.41,4.41,0,0,0-.83-2.81,2.72,2.72,0,0,0-4.34,0A4.87,4.87,0,0,0,328.9,108.83Zm14.3,3.89a2.59,2.59,0,0,0,1.69-.58,2.08,2.08,0,0,0,.8-1.47h1.71a3.28,3.28,0,0,1-.62,1.73,4.24,4.24,0,0,1-1.55,1.31,4.43,4.43,0,0,1-2,.48,4.34,4.34,0,0,1-3.43-1.43,5.75,5.75,0,0,1-1.27-4v-.3a6.3,6.3,0,0,1,.56-2.74,4.42,4.42,0,0,1,1.62-1.87,4.68,4.68,0,0,1,2.51-.66,4.21,4.21,0,0,1,2.95,1.06,3.78,3.78,0,0,1,1.26,2.77h-1.71a2.42,2.42,0,0,0-.78-1.68,2.35,2.35,0,0,0-1.72-.67,2.55,2.55,0,0,0-2.14,1,4.66,4.66,0,0,0-.75,2.86v.34a4.54,4.54,0,0,0,.75,2.81A2.55,2.55,0,0,0,343.2,112.72Zm14.09-7.82h-3.55V114h-1.81v-9.1h-3.47v-1.47h8.83Zm5.36,9.29a4.61,4.61,0,0,1-3.5-1.4A5.25,5.25,0,0,1,357.8,109v-.33a6.27,6.27,0,0,1,.6-2.8,4.62,4.62,0,0,1,1.68-1.94,4.19,4.19,0,0,1,2.34-.7,3.93,3.93,0,0,1,3.2,1.36,5.82,5.82,0,0,1,1.15,3.88v.75h-7.16a3.78,3.78,0,0,0,.91,2.53,2.88,2.88,0,0,0,2.22,1,3.13,3.13,0,0,0,1.62-.39,4,4,0,0,0,1.17-1l1.1.86A4.44,4.44,0,0,1,362.65,114.19Zm-.23-9.47a2.39,2.39,0,0,0-1.83.8,3.84,3.84,0,0,0-.92,2.23H365v-.14a3.44,3.44,0,0,0-.74-2.13A2.28,2.28,0,0,0,362.42,104.72Zm13.28-1.29h1.81V114H375.7v-7.71L370.83,114H369V103.43h1.81v7.72Zm.49-3.84a2.43,2.43,0,0,1-.81,1.9,3.49,3.49,0,0,1-4.23,0,2.41,2.41,0,0,1-.81-1.89h1.48a1.48,1.48,0,0,0,.37,1.07,1.45,1.45,0,0,0,1.08.38,1.47,1.47,0,0,0,1.07-.38,1.42,1.42,0,0,0,.39-1.07Zm13.42,13.13a2.61,2.61,0,0,0,1.69-.58,2.08,2.08,0,0,0,.8-1.47h1.71a3.21,3.21,0,0,1-.63,1.73,4.13,4.13,0,0,1-1.54,1.31,4.46,4.46,0,0,1-2,.48,4.36,4.36,0,0,1-3.44-1.43,5.8,5.8,0,0,1-1.27-4v-.3a6.3,6.3,0,0,1,.57-2.74,4.42,4.42,0,0,1,1.62-1.87,4.68,4.68,0,0,1,2.51-.66,4.21,4.21,0,0,1,2.95,1.06,3.78,3.78,0,0,1,1.26,2.77H392.1a2.42,2.42,0,0,0-.78-1.68,2.37,2.37,0,0,0-1.72-.67,2.55,2.55,0,0,0-2.14,1,4.66,4.66,0,0,0-.75,2.86v.34a4.54,4.54,0,0,0,.75,2.81A2.54,2.54,0,0,0,389.61,112.72Zm5.75-4.1a6.15,6.15,0,0,1,.61-2.79,4.55,4.55,0,0,1,1.7-1.92,4.62,4.62,0,0,1,2.49-.67,4.44,4.44,0,0,1,3.48,1.49,5.71,5.71,0,0,1,1.34,4v.12a6.41,6.41,0,0,1-.59,2.78,4.53,4.53,0,0,1-1.69,1.9,4.62,4.62,0,0,1-2.52.68,4.44,4.44,0,0,1-3.49-1.49,5.69,5.69,0,0,1-1.33-4Zm1.82.21a4.55,4.55,0,0,0,.81,2.83,2.77,2.77,0,0,0,4.37,0,5,5,0,0,0,.81-3,4.41,4.41,0,0,0-.83-2.81,2.72,2.72,0,0,0-4.34,0A4.87,4.87,0,0,0,397.18,108.83ZM412.37,114V103.43h4.12a5.84,5.84,0,0,1,3.24.75,2.39,2.39,0,0,1,1.13,2.15,2.21,2.21,0,0,1-.44,1.33,2.76,2.76,0,0,1-1.3.9,2.79,2.79,0,0,1,1.53.88,2.23,2.23,0,0,1,.59,1.56,2.6,2.6,0,0,1-1.07,2.23,5.12,5.12,0,0,1-3,.77Zm1.81-4.64v3.18h3a2.81,2.81,0,0,0,1.69-.42,1.38,1.38,0,0,0,.56-1.18c0-1-.77-1.58-2.32-1.58Zm0-1.44h2.33c1.7,0,2.54-.5,2.54-1.49s-.8-1.5-2.4-1.53h-2.47Zm13.69,4.8a2.59,2.59,0,0,0,1.69-.58,2.08,2.08,0,0,0,.8-1.47h1.71a3.28,3.28,0,0,1-.62,1.73,4.24,4.24,0,0,1-1.55,1.31,4.46,4.46,0,0,1-2,.48,4.37,4.37,0,0,1-3.44-1.43,5.8,5.8,0,0,1-1.27-4v-.3a6.3,6.3,0,0,1,.57-2.74,4.42,4.42,0,0,1,1.62-1.87,4.68,4.68,0,0,1,2.51-.66,4.21,4.21,0,0,1,2.95,1.06,3.78,3.78,0,0,1,1.26,2.77h-1.71a2.42,2.42,0,0,0-.78-1.68,2.35,2.35,0,0,0-1.72-.67,2.55,2.55,0,0,0-2.14,1,4.66,4.66,0,0,0-.75,2.86v.34a4.54,4.54,0,0,0,.75,2.81A2.54,2.54,0,0,0,427.87,112.72Zm10.62,1.47a4.61,4.61,0,0,1-3.5-1.4,5.25,5.25,0,0,1-1.35-3.78v-.33a6.27,6.27,0,0,1,.6-2.8,4.62,4.62,0,0,1,1.68-1.94,4.19,4.19,0,0,1,2.34-.7,3.93,3.93,0,0,1,3.2,1.36,5.82,5.82,0,0,1,1.15,3.88v.75h-7.16a3.78,3.78,0,0,0,.91,2.53,2.88,2.88,0,0,0,2.22,1,3.13,3.13,0,0,0,1.62-.39,4,4,0,0,0,1.17-1l1.1.86A4.44,4.44,0,0,1,438.49,114.19Zm-.23-9.47a2.39,2.39,0,0,0-1.83.8,3.78,3.78,0,0,0-.92,2.23h5.29v-.14a3.44,3.44,0,0,0-.74-2.13A2.28,2.28,0,0,0,438.26,104.72Zm13.27.21h-4.87V114h-1.82V103.43h6.69Zm.9,3.69a6.15,6.15,0,0,1,.61-2.79,4.55,4.55,0,0,1,1.7-1.92,4.62,4.62,0,0,1,2.49-.67,4.44,4.44,0,0,1,3.48,1.49,5.71,5.71,0,0,1,1.34,4v.12a6.27,6.27,0,0,1-.6,2.78,4.44,4.44,0,0,1-1.68,1.9,4.62,4.62,0,0,1-2.52.68,4.44,4.44,0,0,1-3.49-1.49,5.69,5.69,0,0,1-1.33-4Zm1.82.21a4.55,4.55,0,0,0,.81,2.83,2.77,2.77,0,0,0,4.37,0,5,5,0,0,0,.81-3,4.41,4.41,0,0,0-.83-2.81,2.72,2.72,0,0,0-4.34,0A4.87,4.87,0,0,0,454.25,108.83Zm21.11,2.78,3.59-8.18h2.26V114H479.4v-7.69L476,114h-1.25l-3.49-7.85V114h-1.81V103.43h2.35Zm15.6-8.18h1.8V114H491v-7.71L486.08,114h-1.8V103.43h1.8v7.72Zm13.63,5.4a6.36,6.36,0,0,1-1.1,3.89,3.54,3.54,0,0,1-3,1.47,3.86,3.86,0,0,1-3-1.22v5.09h-1.81V103.43h1.65l.09,1.18a3.71,3.71,0,0,1,3.07-1.37,3.61,3.61,0,0,1,3,1.43,6.41,6.41,0,0,1,1.11,4Zm-1.81-.2a4.65,4.65,0,0,0-.76-2.82,2.46,2.46,0,0,0-2.09-1,2.67,2.67,0,0,0-2.46,1.46v5a2.66,2.66,0,0,0,2.48,1.44,2.42,2.42,0,0,0,2.06-1A5,5,0,0,0,502.78,108.63ZM513.42,114a3.74,3.74,0,0,1-.26-1.11,4,4,0,0,1-3,1.3,3.77,3.77,0,0,1-2.57-.87,2.89,2.89,0,0,1-1-2.25,3,3,0,0,1,1.25-2.56,5.94,5.94,0,0,1,3.54-.92h1.76v-.83a2,2,0,0,0-.57-1.5,2.27,2.27,0,0,0-1.67-.57,2.64,2.64,0,0,0-1.62.49,1.44,1.44,0,0,0-.66,1.18h-1.81a2.49,2.49,0,0,1,.55-1.52,3.87,3.87,0,0,1,1.53-1.17,5.09,5.09,0,0,1,2.12-.43,4.13,4.13,0,0,1,2.86.92,3.28,3.28,0,0,1,1.07,2.51v4.86a6.05,6.05,0,0,0,.37,2.31V114Zm-3-1.38a3.1,3.1,0,0,0,1.61-.44,2.65,2.65,0,0,0,1.11-1.14v-2.17h-1.42c-2.21,0-3.32.65-3.32,1.95a1.64,1.64,0,0,0,.56,1.32A2.19,2.19,0,0,0,510.42,112.62Z" transform="translate(-96 -8)"/><path class="cls-2" d="M296.39,88.29H285.91V66.24H265.48V88.29H255V36.83h10.48V57.68h20.43V36.83h10.48Z" transform="translate(-96 -8)"/><path class="cls-2" d="M327.55,84.4A12.58,12.58,0,0,1,317.21,89q-6.07,0-9.29-3.53t-3.25-10.36V50.05h10.1V74.76q0,6,5.37,6,5.14,0,7.06-3.61V50.05h10.13V88.29h-9.5Z" transform="translate(-96 -8)"/><path class="cls-2" d="M379,69.52q0,9.2-3.88,14.35A12.78,12.78,0,0,1,364.3,89a11.75,11.75,0,0,1-9.82-4.77L354,88.29h-9.08V34H355V53.48a11.44,11.44,0,0,1,9.19-4.14,12.82,12.82,0,0,1,10.82,5.16Q379,59.63,379,69Zm-10.1-.74q0-5.79-1.81-8.45a6.11,6.11,0,0,0-5.42-2.68q-4.82,0-6.63,4V76.73c1.23,2.69,3.47,4,6.7,4s5.41-1.62,6.43-4.87A25.51,25.51,0,0,0,368.9,68.78Z" transform="translate(-96 -8)"/><path class="cls-3" d="M396.56,79.77H419v8.52H386V36.83h10.56Z" transform="translate(-96 -8)"/><path class="cls-3" d="M422.8,68.82A22.7,22.7,0,0,1,425,58.67a16,16,0,0,1,6.26-6.89,18.3,18.3,0,0,1,9.54-2.44,17.24,17.24,0,0,1,12.56,4.74q4.89,4.72,5.45,12.86l.07,2.62q0,8.81-4.89,14.14T440.86,89q-8.24,0-13.16-5.3t-4.9-14.42Zm10.17.74q0,5.44,2,8.34a7.35,7.35,0,0,0,11.61,0q2.07-2.86,2.07-9.12,0-5.34-2.07-8.27a6.74,6.74,0,0,0-5.84-2.94A6.61,6.61,0,0,0,435,60.55Q433,63.44,433,69.56Z" transform="translate(-96 -8)"/><path class="cls-3" d="M475.87,88.29H465.66V50.05h10.21ZM465.06,40.15a5.07,5.07,0,0,1,1.52-3.78,6.58,6.58,0,0,1,8.34,0,5.41,5.41,0,0,1,0,7.6,5.68,5.68,0,0,1-4.11,1.48A5.84,5.84,0,0,1,466.61,44,5.06,5.06,0,0,1,465.06,40.15Z" transform="translate(-96 -8)"/><path class="cls-3" d="M482.69,68.89q0-8.94,4-14.25a13,13,0,0,1,10.94-5.3,11.65,11.65,0,0,1,9.19,4.17V34H517V88.29h-9.18l-.5-4.06A11.94,11.94,0,0,1,497.54,89a13,13,0,0,1-10.8-5.3Q482.69,78.36,482.69,68.89Zm10.17.74q0,5.37,1.87,8.24a6.08,6.08,0,0,0,5.42,2.86,6.8,6.8,0,0,0,6.65-4V61.64a6.71,6.71,0,0,0-6.58-4Q492.86,57.65,492.86,69.63Z" transform="translate(-96 -8)"/></svg>