<svg xmlns="http://www.w3.org/2000/svg" viewBox="0 0 58 58"><defs><style>.cls-1,.cls-2{fill:none;}.cls-1,.cls-2,.cls-3{stroke:#cda977;}.cls-2{stroke-linecap:round;}.cls-3{fill:#fff;}.cls-4{fill:#cda977;}</style></defs><title>Asset 1</title><g id="Layer_2" data-name="Layer 2"><g id="Layer_1-2" data-name="Layer 1"><circle class="cls-1" cx="29" cy="29" r="28.5"/><path class="cls-1" d="M42.5,29c0,8-1.56,15.12-4,20.29S32.57,57.5,29,57.5s-6.94-3-9.45-8.21S15.5,37,15.5,29s1.56-15.12,4.05-20.29S25.43.5,29,.5s6.94,3,9.45,8.21S42.5,21.05,42.5,29Z"/><line class="cls-1" x1="54" y1="15.5" x2="4" y2="15.5"/><path class="cls-2" d="M53.5,43.5H4.6"/><rect class="cls-3" x="6.5" y="18.5" width="22" height="22"/><rect class="cls-4" x="29" y="18" width="23" height="23"/><path d="M22.56,35H19.92V29.52H14.78V35H12.14V22.2h2.64v5.19h5.14V22.2h2.64Z"/><path d="M38.78,32.88h5.6V35H36.14V22.2h2.64Z"/></g></g></svg>