<svg width="64" height="64" viewBox="0 0 64 64" fill="none" xmlns="http://www.w3.org/2000/svg">
<rect width="64" height="64" fill="white"/>
<circle cx="32" cy="32" r="28.5" stroke="#CDA977"/>
<path d="M45.5 32C45.5 39.9497 43.9434 47.1222 41.4492 52.2887C38.9381 57.4903 35.5653 60.5 32 60.5C28.4347 60.5 25.0619 57.4903 22.5508 52.2887C20.0566 47.1222 18.5 39.9497 18.5 32C18.5 24.0503 20.0566 16.8777 22.5508 11.7113C25.0619 6.50968 28.4347 3.5 32 3.5C35.5653 3.5 38.9381 6.50968 41.4492 11.7113C43.9434 16.8777 45.5 24.0503 45.5 32Z" stroke="#CDA977"/>
<line x1="57" y1="18.5" x2="7" y2="18.5" stroke="#CDA977"/>
<path d="M56.5 46.5L7.60409 46.5" stroke="#CDA977" stroke-linecap="round"/>
<rect x="9.5" y="21.5" width="22" height="22" fill="white" stroke="#CDA977"/>
<rect x="32" y="21" width="23" height="23" fill="#CDA977"/>
<path d="M25.5576 38H22.9209V32.5156H17.7793V38H15.1426V25.2031H17.7793V30.3887H22.9209V25.2031H25.5576V38Z" fill="black"/>
<path d="M41.7793 35.8818H47.3779V38H39.1426V25.2031H41.7793V35.8818Z" fill="black"/>
</svg>
